<?xml version="1.0" encoding="UTF-8"?>
<svg id="Layer_2" xmlns="http://www.w3.org/2000/svg" version="1.1" viewBox="0 0 152.8 48.5">
  <!-- Generator: Adobe Illustrator 29.0.0, SVG Export Plug-In . SVG Version: 2.1.0 Build 186)  -->
  <g id="Layer_1-2">
    <g>
      <g>
        <path d="M145.8,35c-1.8,0-3.4-.7-4.7-1.8h-.1c0-.1-.1,0-.1,0-1.3,1.2-3,1.8-4.7,1.8s-3.7-.8-5-2c-1.3-1.3-2.1-3.1-2.1-5V7.9h4.3v20.1c0,.7.3,1.4.8,1.9.5.5,1.2.8,1.9.8s1.4-.3,1.9-.8c.5-.5.8-1.2.8-1.9V7.9h4.3v20.1c0,.7.3,1.4.8,1.9.5.5,1.2.8,1.9.8s1.4-.3,1.9-.8c.5-.5.8-1.2.8-1.9V7.9h4.3v20.1c0,1.9-.8,3.6-2.1,5s-3.1,2-4.9,2h0Z"/>
        <path d="M86.8,35c-.8,0-1.5-.2-2.2-.5-.7-.4-1.4-.9-1.8-1.6-.3-.5-.6-1-.7-1.6l-5.3-23.4h4.4l5.1,22.3c0,.1,0,.2,0,.2h0c.1.2.3.2.4.2s.2,0,.3,0c0,0,.2-.1.2-.2,0,0,0-.1,0-.2l4.4-22.3h4.4l-4.5,23.2c-.1.6-.4,1.2-.7,1.7-.3.5-.7.9-1.2,1.2-.9.6-1.9,1-3,1"/>
        <path d="M116.7,35c-2,0-3.9-.8-5.3-2.2-1.4-1.4-2.2-3.3-2.2-5.3v-11.8c0-2.1.8-4.1,2.3-5.5,1.4-1.4,3.4-2.3,5.5-2.3s4.2.8,5.6,2.3c1.4,1.4,2.3,3.4,2.3,5.5v7.1h-11.3v4.7c0,.9.3,1.7.9,2.3s1.4.9,2.3.9h.6c.8,0,1.7-.3,2.3-.9.4-.4.7-1,.9-1.5h4.4c-.2,1.7-.9,3.4-2.2,4.6-1.4,1.4-3.3,2.2-5.3,2.2h-.6ZM116.9,12.2c-.9,0-1.8.4-2.4,1-.7.7-1,1.5-1,2.4v2.7h7v-2.7c0-.9-.4-1.8-1-2.4-.7-.6-1.5-1-2.4-1h-.1Z"/>
        <rect x="100.5" y="7.9" width="4.3" height="27.1"/>
        <rect x="100.5" width="4.3" height="4.3"/>
        <rect x="28" y="7.9" width="4.3" height="27.1"/>
        <rect x="28" y="38.6" width="4.3" height="4.3"/>
        <path d="M19.4,35V14.9c0-.7-.3-1.4-.8-1.9-.5-.5-1.2-.8-1.9-.8s-1.4.3-1.9.8c-.5.5-.8,1.2-.8,1.9v20.1h-4.3V14.9c0-.7-.3-1.4-.8-1.9-.5-.5-1.2-.8-1.9-.8s-1.4.3-1.9.8c-.5.5-.8,1.2-.8,1.9v20.1H0V14.9c0-1.9.8-3.7,2-5,1.3-1.3,3.1-2.1,5-2.1s3.4.7,4.7,1.9h.1c0,.1.1,0,.1,0,1.3-1.2,3-1.8,4.7-1.8s3.7.7,5,2c1.3,1.3,2.1,3.1,2,5v20.1h-4.3,0Z"/>
        <path d="M64.2,35c-2,0-3.9-.8-5.3-2.2-1.4-1.4-2.2-3.3-2.2-5.3v-11.7c0-2.1.8-4.1,2.3-5.5,1.4-1.4,3.4-2.3,5.5-2.3v4.3c-.9,0-1.8.4-2.4,1-.7.7-1,1.5-1,2.4v11.7c0,.9.3,1.7.9,2.3.6.6,1.4.9,2.3.9h.6c.8,0,1.7-.3,2.3-.9.6-.6.9-1.4.9-2.3V8.6h0V0h4.3v27.5c0,2-.8,3.9-2.2,5.3-1.4,1.4-3.3,2.2-5.3,2.2h-.6Z"/>
        <path d="M48,35V15.7c0-.9-.4-1.8-1-2.4-.7-.6-1.5-1-2.4-1s-1.9.4-2.5,1c-.7.7-1,1.5-1,2.4v19.3h-4.3V15.7c0-2.1.8-4.1,2.3-5.5,1.4-1.4,3.5-2.3,5.5-2.3s4.2.8,5.6,2.3c1.5,1.4,2.3,3.4,2.3,5.5v19.3h-4.3Z"/>
      </g>
      <g>
        <path d="M62.1,44.1l-.5.3c-.5-.6-1.1-.9-1.9-.9s-1.2.2-1.6.6c-.4.4-.7.9-.7,1.5s0,.8.3,1.1c.2.3.5.6.8.8.3.2.7.3,1.2.3.8,0,1.4-.3,1.9-.9l.5.4c-.3.4-.6.7-1,.9-.4.2-.9.3-1.5.3-.8,0-1.6-.3-2.1-.8-.6-.5-.8-1.2-.8-2s.1-1,.4-1.5.6-.8,1.1-1c.5-.2,1-.4,1.5-.4s.7,0,1,.2c.3.1.6.2.8.4.2.2.4.4.6.7"/>
        <path d="M64,43h.7v.8c.2-.3.4-.5.7-.7.2-.2.5-.2.7-.2s.4,0,.6.2l-.4.6c-.2,0-.3,0-.4,0-.2,0-.4,0-.7.3-.2.2-.4.5-.5.9,0,.3-.1.9-.1,1.9v1.8h-.7v-5.4h0Z"/>
        <path d="M72.5,46.5l.6.3c-.2.4-.4.7-.7.9s-.5.4-.8.5c-.3.1-.7.2-1.1.2-.9,0-1.6-.3-2.1-.9-.5-.6-.7-1.2-.7-2s.2-1.3.6-1.8c.5-.7,1.2-1,2.1-1s1.7.3,2.2,1c.4.5.6,1.1.6,1.8h-4.8c0,.6.2,1.1.6,1.5s.9.6,1.4.6.5,0,.8-.1c.3,0,.5-.2.7-.4s.4-.4.6-.8M72.5,45.1c0-.4-.2-.7-.4-.9s-.4-.4-.7-.5c-.3-.1-.6-.2-.9-.2-.5,0-1,.2-1.4.5-.3.2-.5.6-.6,1.1,0,0,4,0,4,0Z"/>
        <path d="M80.7,43v5.4h-.7v-.9c-.3.3-.6.6-1,.8s-.8.3-1.2.3c-.8,0-1.4-.3-1.9-.8-.5-.5-.8-1.2-.8-2s.3-1.4.8-2c.5-.5,1.2-.8,2-.8s.8,0,1.2.3.7.5.9.8v-1h.7ZM77.9,43.5c-.4,0-.7,0-1.1.3s-.6.5-.8.8-.3.7-.3,1.1,0,.7.3,1.1.5.6.8.8c.3.2.7.3,1.1.3s.7,0,1.1-.3c.3-.2.6-.5.8-.8.2-.3.3-.7.3-1.1,0-.6-.2-1.1-.6-1.6-.4-.4-.9-.6-1.5-.6"/>
        <polygon points="83.6 41 84.3 41 84.3 43 85.4 43 85.4 43.5 84.3 43.5 84.3 48.3 83.6 48.3 83.6 43.5 82.6 43.5 82.6 43 83.6 43 83.6 41"/>
        <path d="M87.4,40.7c.2,0,.3,0,.4.2.1.1.2.2.2.4s0,.3-.2.4-.2.2-.4.2-.3,0-.4-.2c-.1-.1-.2-.2-.2-.4s0-.3.2-.4c.1-.1.2-.2.4-.2M87,43h.7v5.4h-.7v-5.4Z"/>
        <polygon points="89.4 43 90.1 43 91.9 46.9 93.7 43 94.5 43 92 48.3 91.9 48.3 89.4 43"/>
        <path d="M100.8,46.5l.6.3c-.2.4-.4.7-.7.9s-.5.4-.8.5c-.3.1-.7.2-1.1.2-.9,0-1.6-.3-2.1-.9-.5-.6-.7-1.2-.7-2s.2-1.3.6-1.8c.5-.7,1.2-1,2.1-1s1.7.3,2.2,1c.4.5.6,1.1.6,1.8h-4.8c0,.6.2,1.1.6,1.5s.9.6,1.4.6.5,0,.8-.1c.3,0,.5-.2.7-.4s.4-.4.6-.8M100.8,45.1c0-.4-.2-.7-.4-.9s-.4-.4-.7-.5c-.3-.1-.6-.2-.9-.2-.5,0-1,.2-1.4.5-.3.2-.5.6-.6,1.1,0,0,4,0,4,0Z"/>
        <path d="M109.8,43.5l-.4.5c-.4-.4-.7-.5-1.1-.5s-.4,0-.6.2-.2.3-.2.5,0,.3.2.5.4.3.8.6c.5.3.9.5,1.1.8s.3.5.3.8-.2.8-.5,1.1c-.3.3-.7.5-1.2.5s-.6,0-.9-.2c-.3-.1-.5-.3-.7-.6l.4-.5c.3.4.7.6,1.1.6s.5,0,.7-.3c.2-.2.3-.4.3-.6s0-.4-.2-.5c-.1-.2-.4-.3-.9-.6-.5-.2-.8-.5-1-.7-.2-.2-.3-.5-.3-.8s.1-.8.4-1,.6-.4,1.1-.4,1,.2,1.5.7"/>
        <path d="M114.3,42.8c.8,0,1.5.3,2.1.9.5.5.7,1.2.7,1.9s-.3,1.4-.8,2c-.5.6-1.2.8-2,.8s-1.5-.3-2-.8-.8-1.2-.8-2,.2-1.4.7-1.9c.5-.6,1.2-.9,2.1-.9M114.3,43.5c-.6,0-1.1.2-1.5.6s-.6.9-.6,1.5,0,.8.3,1.1.4.6.8.8.7.3,1.1.3.7,0,1.1-.3.6-.4.8-.8c.2-.3.3-.7.3-1.1,0-.6-.2-1.1-.6-1.5-.4-.4-.9-.6-1.5-.6"/>
        <rect x="119.1" y="40.9" width=".7" height="7.5"/>
        <path d="M121.8,43h.7v2.5c0,.6,0,1,0,1.3,0,.3.3.6.6.8s.6.3,1,.3.7,0,1-.3c.3-.2.4-.4.6-.7,0-.2,0-.7,0-1.3v-2.5h.7v2.6c0,.7,0,1.3-.3,1.7-.2.4-.4.7-.8.9-.3.2-.8.3-1.3.3s-1-.1-1.3-.3-.6-.5-.8-.9c-.2-.4-.3-1-.3-1.7v-2.6h0Z"/>
        <polygon points="129.4 41 130.1 41 130.1 43 131.2 43 131.2 43.5 130.1 43.5 130.1 48.3 129.4 48.3 129.4 43.5 128.5 43.5 128.5 43 129.4 43 129.4 41"/>
        <path d="M133.2,40.7c.2,0,.3,0,.4.2.1.1.2.2.2.4s0,.3-.2.4-.2.2-.4.2-.3,0-.4-.2c-.1-.1-.2-.2-.2-.4s0-.3.2-.4c.1-.1.2-.2.4-.2M132.9,43h.7v5.4h-.7v-5.4Z"/>
        <path d="M138.3,42.8c.8,0,1.5.3,2.1.9.5.5.7,1.2.7,1.9s-.3,1.4-.8,2c-.5.6-1.2.8-2,.8s-1.5-.3-2-.8-.8-1.2-.8-2,.2-1.4.7-1.9c.5-.6,1.2-.9,2.1-.9M138.3,43.5c-.6,0-1.1.2-1.5.6-.4.4-.6.9-.6,1.5s0,.8.3,1.1.4.6.8.8c.3.2.7.3,1.1.3s.7,0,1.1-.3c.3-.2.6-.4.8-.8.2-.3.3-.7.3-1.1,0-.6-.2-1.1-.6-1.5-.4-.4-.9-.6-1.5-.6"/>
        <path d="M143.1,43h.7v1c.3-.4.6-.7.9-.8s.7-.3,1.1-.3.8,0,1.1.3c.3.2.5.5.7.8.1.3.2.9.2,1.6v2.8h-.7v-2.6c0-.6,0-1,0-1.2,0-.4-.2-.6-.5-.8-.2-.2-.5-.3-.9-.3s-.8.1-1.1.4c-.3.3-.6.6-.7,1,0,.3-.1.8-.1,1.5v2h-.7v-5.4h0Z"/>
        <path d="M152.8,43.5l-.4.5c-.4-.4-.7-.5-1.1-.5s-.4,0-.6.2-.2.3-.2.5,0,.3.2.5c.1.2.4.3.8.6.5.3.9.5,1.1.8.2.2.3.5.3.8s-.2.8-.5,1.1c-.3.3-.7.5-1.2.5s-.6,0-.9-.2c-.3-.1-.5-.3-.7-.6l.4-.5c.4.4.7.6,1.1.6s.5,0,.7-.3c.2-.2.3-.4.3-.6s0-.4-.2-.5c-.1-.2-.4-.3-.9-.6-.5-.2-.8-.5-1-.7-.2-.2-.3-.5-.3-.8s.1-.8.4-1,.6-.4,1.1-.4,1,.2,1.5.7"/>
      </g>
    </g>
  </g>
</svg>